<svg xmlns="http://www.w3.org/2000/svg" viewBox="0 0 600 600" role="img" aria-label="Dual USB Car Charger">
  <defs>
    <linearGradient id="bg" x1="0" y1="0" x2="1" y2="1">
      <stop offset="0" stop-color="#f7f7f7"/>
      <stop offset="1" stop-color="#e8edf3"/>
    </linearGradient>
    <linearGradient id="body" x1="0" y1="0" x2="1" y2="1">
      <stop offset="0" stop-color="#2f2f35"/>
      <stop offset="1" stop-color="#111318"/>
    </linearGradient>
    <linearGradient id="ring" x1="0" y1="0" x2="0" y2="1">
      <stop offset="0" stop-color="#19c7ff"/>
      <stop offset="1" stop-color="#0b8bd6"/>
    </linearGradient>
  </defs>
  <rect width="600" height="600" fill="url(#bg)"/>
  <g transform="translate(300,300) rotate(-18)">
    <rect x="-70" y="-200" width="140" height="340" rx="58" fill="url(#body)"/>
    <rect x="-58" y="-170" width="116" height="92" rx="18" fill="#0a0d12"/>
    <rect x="-45" y="-155" width="36" height="60" rx="7" fill="#1f2731"/>
    <rect x="9" y="-155" width="36" height="60" rx="7" fill="#1f2731"/>
    <rect x="-43" y="-153" width="32" height="56" rx="6" fill="#6b7785"/>
    <rect x="11" y="-153" width="32" height="56" rx="6" fill="#6b7785"/>
    <circle cx="0" cy="55" r="44" fill="none" stroke="url(#ring)" stroke-width="16"/>
    <circle cx="0" cy="55" r="22" fill="#161a22"/>
    <rect x="-26" y="142" width="52" height="24" rx="8" fill="#242a33"/>
  </g>
  <text x="300" y="542" text-anchor="middle" font-family="Arial, sans-serif" font-size="30" fill="#3a3f47">Dual USB Car Charger</text>
</svg>
