<svg xmlns="http://www.w3.org/2000/svg" viewBox="0 0 600 600" role="img" aria-label="Wireless Bluetooth Earbuds">
  <defs>
    <linearGradient id="bg" x1="0" y1="0" x2="1" y2="1">
      <stop offset="0" stop-color="#f4f6fb"/>
      <stop offset="1" stop-color="#e8ecf4"/>
    </linearGradient>
  </defs>
  <rect width="600" height="600" fill="url(#bg)"/>
  <g transform="translate(300,315)">
    <rect x="-145" y="-55" width="290" height="165" rx="42" fill="#ffffff" stroke="#d8dde8" stroke-width="8"/>
    <ellipse cx="-84" cy="-15" rx="28" ry="34" fill="#edf1f8"/>
    <ellipse cx="84" cy="-15" rx="28" ry="34" fill="#edf1f8"/>
    <rect x="-126" y="112" width="252" height="18" rx="9" fill="#d6dce7"/>
  </g>
  <g transform="translate(300,420)">
    <g transform="translate(-130,70)">
      <path d="M0 0 c40 -12 58 -42 62 -86 l1 -10 c2 -24 14 -38 31 -44" fill="none" stroke="#ffffff" stroke-width="20" stroke-linecap="round"/>
      <path d="M0 0 c40 -12 58 -42 62 -86 l1 -10 c2 -24 14 -38 31 -44" fill="none" stroke="#d8dee9" stroke-width="6" stroke-linecap="round"/>
    </g>
    <g transform="translate(130,70) scale(-1,1)">
      <path d="M0 0 c40 -12 58 -42 62 -86 l1 -10 c2 -24 14 -38 31 -44" fill="none" stroke="#ffffff" stroke-width="20" stroke-linecap="round"/>
      <path d="M0 0 c40 -12 58 -42 62 -86 l1 -10 c2 -24 14 -38 31 -44" fill="none" stroke="#d8dee9" stroke-width="6" stroke-linecap="round"/>
    </g>
  </g>
  <text x="300" y="565" text-anchor="middle" font-family="Arial, sans-serif" font-size="30" fill="#3a4250">Wireless Bluetooth Earbuds</text>
</svg>
